<?xml version="1.0" encoding="utf-8"?>
<!-- Generator: Adobe Illustrator 17.0.0, SVG Export Plug-In . SVG Version: 6.00 Build 0)  -->
<!DOCTYPE svg PUBLIC "-//W3C//DTD SVG 1.1//EN" "http://www.w3.org/Graphics/SVG/1.1/DTD/svg11.dtd">
<svg version="1.1" id="Layer_1" xmlns="http://www.w3.org/2000/svg" xmlns:xlink="http://www.w3.org/1999/xlink" x="0px" y="0px"
	 width="100.25px" height="49.881px" viewBox="0 0 100.25 49.881" enable-background="new 0 0 100.25 49.881" xml:space="preserve">
<g>
	<g>
		<path fill="#FFFFFF" d="M73.156,21.35c-0.347,0-0.629,0.282-0.629,0.629v0.867v0.18c0,0.044-0.035,0.079-0.079,0.079
			c-0.021,0-0.04-0.008-0.054-0.021c-0.998-1.247-2.483-1.986-4.076-1.986c-3.015,0-5.467,2.589-5.467,5.771
			c0,3.138,2.452,5.69,5.467,5.69c1.589,0,3.068-0.726,4.065-1.947h0.001c0.014-0.02,0.038-0.033,0.064-0.033
			c0.043,0,0.079,0.035,0.079,0.079v1.029c0,0.347,0.282,0.629,0.629,0.629c0.347,0,0.629-0.281,0.629-0.629v-9.707
			C73.784,21.632,73.503,21.35,73.156,21.35z M68.318,31.3c-2.321,0-4.209-1.989-4.209-4.432c0-2.477,1.888-4.493,4.209-4.493
			c2.321,0,4.209,2.016,4.209,4.493C72.527,29.311,70.639,31.3,68.318,31.3z"/>
	</g>
	<g>
		<polygon points="77.577,23.093 77.575,23.095 77.575,23.095 		"/>
		<polygon points="77.572,30.585 77.573,30.585 77.573,30.586 		"/>
		<path fill="#FFFFFF" d="M81.648,21.097c-1.58,0-3.064,0.745-4.073,1.998c0.001-0.001,0.002-0.001,0.003-0.002l-0.003,0.002l0,0
			c-0.014,0.015-0.035,0.026-0.057,0.026c-0.043,0-0.079-0.036-0.079-0.079l0.001-0.062v-1.001h-0.001
			c0-0.347-0.282-0.629-0.629-0.629c-0.347,0-0.629,0.282-0.629,0.629v14.352c0,0.347,0.282,0.629,0.629,0.629
			c0.347,0,0.629-0.281,0.629-0.629h0.001l-0.001-5.689c0-0.043,0.035-0.079,0.079-0.079c0.022,0,0.041,0.009,0.055,0.023
			c0,0,0,0-0.001,0l0.001,0.001c0-0.001,0,0,0-0.001c1.008,1.237,2.493,1.972,4.075,1.972c3.025,0,5.487-2.552,5.487-5.69
			C87.135,23.685,84.673,21.097,81.648,21.097z M81.648,31.3c-2.321,0-4.209-1.989-4.209-4.432c0-2.477,1.888-4.493,4.209-4.493
			c2.321,0,4.209,2.016,4.209,4.493C85.857,29.311,83.969,31.3,81.648,31.3z"/>
	</g>
	<g>
		<path fill="#FFFFFF" d="M94.176,21.097c-3.014,0-5.466,2.589-5.466,5.771c0,3.191,2.455,5.69,5.588,5.69c2.328,0,4.051-1.103,4.908-3.122h0
			c0.032-0.075,0.05-0.158,0.05-0.245c0-0.347-0.282-0.629-0.629-0.629c-0.261,0-0.481,0.159-0.576,0.386v0
			c-0.655,1.561-1.917,2.352-3.753,2.352c-2.316,0-4.106-1.719-4.311-4.062c0-0.087,0.071-0.157,0.157-0.157h8.864
			c0.347,0,0.627-0.281,0.627-0.629c-0.08-1.363-0.697-2.742-1.691-3.751C96.926,21.666,95.587,21.097,94.176,21.097z
			 M98.225,25.666c0,0.087-0.07,0.157-0.157,0.157v0h-7.77v0c-0.087,0-0.157-0.07-0.157-0.157c0-0.014,0.002-0.028,0.006-0.041l0,0
			c0.501-1.91,2.127-3.25,4.029-3.25c1.896,0,3.53,1.341,4.047,3.254l-0.003,0C98.224,25.64,98.225,25.653,98.225,25.666z"/>
	</g>
	<g>
		<path fill="#FFFFFF" d="M33.159,21.097c-3.014,0-5.466,2.589-5.466,5.771c0,3.191,2.455,5.69,5.588,5.69c2.328,0,4.051-1.103,4.908-3.122h0
			c0.032-0.075,0.05-0.158,0.05-0.245c0-0.347-0.282-0.629-0.629-0.629c-0.261,0-0.481,0.159-0.576,0.386v0
			c-0.655,1.561-1.917,2.352-3.753,2.352c-2.316,0-4.106-1.719-4.311-4.062c0-0.087,0.071-0.157,0.157-0.157h8.864
			c0.347,0,0.627-0.281,0.627-0.629c-0.08-1.363-0.697-2.742-1.691-3.751C35.908,21.666,34.57,21.097,33.159,21.097z M37.207,25.666
			c0,0.087-0.07,0.157-0.157,0.157v0h-7.77v0c-0.087,0-0.157-0.07-0.157-0.157c0-0.014,0.002-0.028,0.006-0.041l0,0
			c0.501-1.91,2.127-3.25,4.029-3.25c1.896,0,3.53,1.341,4.047,3.254l-0.003,0C37.206,25.64,37.207,25.653,37.207,25.666z"/>
	</g>
	<path fill="#FFFFFF" d="M49.289,23.671c0.026,0.069,0.043,0.146,0.043,0.225c0,0.347-0.282,0.629-0.629,0.629c-0.258,0-0.48-0.154-0.577-0.376l0,0
		c-0.453-1.201-1.547-1.835-3.18-1.835c-1.071,0-1.987,0.307-2.514,0.842c-0.293,0.298-0.444,0.654-0.438,1.03
		c0.016,0.929,0.765,1.317,3.21,1.66c2.273,0.34,4.389,0.967,4.499,3.241c0.023,0.831-0.269,1.623-0.801,2.176
		c-0.802,0.823-2.125,1.295-3.631,1.295c-2.609,0-4.431-1.106-4.983-2.987c-0.016-0.056-0.028-0.113-0.028-0.175
		c0-0.347,0.282-0.629,0.629-0.629c0.304,0,0.521,0.19,0.616,0.502l-0.001-0.001c0.439,1.339,1.756,2.072,3.747,2.072
		c1.135,0,2.158-0.358,2.739-0.957c0.315-0.333,0.471-0.776,0.437-1.245c-0.03-0.952-0.622-1.661-3.414-2.06l-0.056-0.008
		c-1.77-0.258-4.194-0.612-4.238-2.875c0-1.542,1.446-3.098,4.209-3.098C47.141,21.097,48.668,22.006,49.289,23.671z"/>
	<path fill="#FFFFFF" d="M60.209,28.9c0.105-0.201,0.315-0.338,0.558-0.338c0.347,0,0.629,0.281,0.629,0.629c0,0.105-0.026,0.203-0.071,0.29
		l-0.001-0.001c-0.863,1.914-2.668,3.078-4.842,3.078c-3.015,0-5.467-2.552-5.467-5.69c0-3.182,2.452-5.771,5.467-5.771
		c2.186,0,4.01,1.197,4.874,3.161l0,0c0.023,0.065,0.037,0.135,0.037,0.207c0,0.347-0.282,0.629-0.629,0.629h-0.023
		c-0.244,0-0.456-0.139-0.56-0.343c-0.677-1.492-2.043-2.376-3.699-2.376c-2.321,0-4.209,2.016-4.209,4.493
		c0,2.444,1.888,4.432,4.209,4.432C58.194,31.3,59.573,30.407,60.209,28.9L60.209,28.9z"/>
	<path fill="#FFFFFF" d="M8.156,21.497c-1.186-0.544-2.545-0.624-3.786-0.222c-0.652,0.211-1.26,0.555-1.784,0.996
		c-0.264,0.221-0.507,0.467-0.726,0.732c-0.098,0.037-0.103-0.066-0.103-0.129c0-1.385,0-2.769,0-4.154c0-0.492,0-0.983,0-1.475
		c-0.006-0.591-0.783-0.854-1.137-0.371C0.509,17.028,0.5,17.197,0.5,17.375c0,0.455,0,0.91,0,1.365c0,1.62,0,3.241,0,4.861
		c0,1.049,0,2.098,0,3.147c0-0.098,0.01-0.195,0.015-0.292c-0.166,2.903,1.945,5.662,4.897,5.993
		c2.604,0.292,4.999-1.488,5.767-3.936C12.034,25.791,10.788,22.691,8.156,21.497C8.138,21.489,8.156,21.497,8.156,21.497z
		 M10.162,27.002c-0.148,2.423-2.258,4.52-4.761,4.158c-2.722-0.393-4.252-3.438-3.398-5.946c0.643-1.888,2.536-3.191,4.546-2.897
		C8.791,22.647,10.294,24.802,10.162,27.002C10.019,29.343,10.168,26.905,10.162,27.002z"/>
	<path fill="#FFFFFF" d="M14.233,32.464c-0.352,0-0.637-0.285-0.637-0.637V17.254c0-0.352,0.285-0.637,0.637-0.637c0.352,0,0.637,0.285,0.637,0.637
		v14.573C14.87,32.179,14.585,32.464,14.233,32.464z"/>
	<path fill="#FFFFFF" d="M21.551,32.461c-2.137,0-4.409-1.464-4.409-4.176v-6.234c0-0.352,0.285-0.637,0.637-0.637c0.352,0,0.637,0.285,0.637,0.637
		v6.234c0,1.885,1.615,2.902,3.135,2.902c1.915,0,3.059-1.085,3.059-2.904v-6.229c0-0.352,0.285-0.637,0.637-0.637
		c0.352,0,0.637,0.285,0.637,0.637v6.229C25.884,30.782,24.142,32.461,21.551,32.461z"/>
	<path fill="#FFFFFF" d="M25.246,16.476c-0.144,0-0.26-0.116-0.26-0.26V0.26c0-0.077,0.035-0.151,0.094-0.2
		c0.06-0.049,0.138-0.07,0.214-0.055l47.909,9.102c0.123,0.023,0.212,0.131,0.212,0.255v6.787c0,0.144-0.116,0.26-0.26,0.26
		c-0.144,0-0.26-0.116-0.26-0.26V9.577L25.506,0.574v15.642C25.506,16.36,25.39,16.476,25.246,16.476z"/>
	<path fill="#FFFFFF" d="M25.246,49.195c-0.062,0-0.123-0.023-0.171-0.064c-0.057-0.049-0.089-0.121-0.089-0.196V35.84
		c0-0.144,0.116-0.26,0.26-0.26c0.144,0,0.26,0.116,0.26,0.26v12.797l47.389-6.431v-6.3c0-0.144,0.116-0.26,0.26-0.26
		c0.144,0,0.26,0.116,0.26,0.26v6.527c0,0.13-0.096,0.24-0.225,0.258l-47.909,6.502C25.27,49.194,25.258,49.195,25.246,49.195z"/>
</g>
</svg>
